<svg width="25" height="20" viewBox="0 0 25 20" fill="none" xmlns="http://www.w3.org/2000/svg">
<g clip-path="url(#clip0_161_4975)">
<path d="M5.03713 19.3894V18.1341C5.03713 17.6528 4.74415 17.3391 4.24198 17.3391C3.99094 17.3391 3.71893 17.4227 3.5306 17.6947C3.38421 17.4646 3.17501 17.3391 2.86116 17.3391C2.65187 17.3391 2.44276 17.4018 2.27531 17.6319V17.3809H1.83594V19.3894H2.27531V18.2805C2.27531 17.9249 2.46363 17.7575 2.75661 17.7575C3.04939 17.7575 3.19598 17.9458 3.19598 18.2805V19.3894H3.63535V18.2805C3.63535 17.9249 3.84445 17.7575 4.11646 17.7575C4.40943 17.7575 4.55583 17.9458 4.55583 18.2805V19.3894H5.03713ZM11.5439 17.3809H10.8326V16.7742H10.3932V17.3809H9.9957V17.7783H10.3931V18.699C10.3931 19.1593 10.5815 19.4313 11.0836 19.4313C11.272 19.4313 11.4811 19.3685 11.6277 19.2849L11.502 18.9082C11.3765 18.9919 11.2301 19.0129 11.1255 19.0129C10.9163 19.0129 10.8326 18.8873 10.8326 18.678V17.7783H11.5439V17.3809ZM15.2681 17.339C15.0171 17.339 14.8497 17.4646 14.7451 17.6319V17.3809H14.3057V19.3894H14.7451V18.2596C14.7451 17.9249 14.8915 17.7366 15.1635 17.7366C15.2471 17.7366 15.3518 17.7576 15.4355 17.7784L15.561 17.36C15.4773 17.3391 15.3518 17.3391 15.2681 17.3391M9.64001 17.5484C9.43072 17.4019 9.13784 17.3392 8.82399 17.3392C8.32191 17.3392 7.98719 17.5902 7.98719 17.9877C7.98719 18.3225 8.23823 18.5108 8.6776 18.5736L8.88679 18.5945C9.11696 18.6363 9.24248 18.6991 9.24248 18.8037C9.24248 18.9501 9.07512 19.0548 8.78215 19.0548C8.48917 19.0548 8.2591 18.9501 8.11261 18.8456L7.90341 19.1803C8.13358 19.3477 8.44743 19.4313 8.76118 19.4313C9.34704 19.4313 9.68185 19.1594 9.68185 18.7828C9.68185 18.4271 9.40984 18.2388 8.99135 18.1761L8.78215 18.1551C8.59382 18.1341 8.44743 18.0924 8.44743 17.9669C8.44743 17.8204 8.59382 17.7367 8.82399 17.7367C9.07512 17.7367 9.32616 17.8412 9.45168 17.904L9.64001 17.5484ZM21.3147 17.3392C21.0636 17.3392 20.8962 17.4647 20.7916 17.632V17.381H20.3522V19.3895H20.7916V18.2597C20.7916 17.925 20.9381 17.7367 21.21 17.7367C21.2938 17.7367 21.3984 17.7576 21.4821 17.7785L21.6076 17.3601C21.5239 17.3392 21.3984 17.3392 21.3147 17.3392ZM15.7075 18.3853C15.7075 18.992 16.1259 19.4313 16.7745 19.4313C17.0674 19.4313 17.2766 19.3686 17.4858 19.2013L17.2766 18.8456C17.1093 18.9711 16.9419 19.0338 16.7536 19.0338C16.3979 19.0338 16.1469 18.7828 16.1469 18.3853C16.1469 18.0087 16.3979 17.7576 16.7536 17.7367C16.9419 17.7367 17.1093 17.7994 17.2766 17.925L17.4858 17.5693C17.2766 17.4019 17.0674 17.3392 16.7745 17.3392C16.1259 17.3392 15.7075 17.7785 15.7075 18.3853ZM19.7664 18.3853V17.381H19.3271V17.632C19.1806 17.4438 18.9714 17.3392 18.6994 17.3392C18.1345 17.3392 17.6951 17.7785 17.6951 18.3853C17.6951 18.992 18.1345 19.4313 18.6994 19.4313C18.9923 19.4313 19.2016 19.3268 19.3271 19.1385V19.3895H19.7664V18.3853ZM18.1554 18.3853C18.1554 18.0296 18.3855 17.7367 18.7621 17.7367C19.1178 17.7367 19.3689 18.0087 19.3689 18.3853C19.3689 18.7409 19.1178 19.0338 18.7621 19.0338C18.3855 19.0129 18.1554 18.7409 18.1554 18.3853ZM12.9039 17.3392C12.3181 17.3392 11.8996 17.7576 11.8996 18.3853C11.8996 19.0129 12.318 19.4313 12.9248 19.4313C13.2177 19.4313 13.5106 19.3477 13.7408 19.1594L13.5315 18.8456C13.3642 18.9711 13.155 19.0548 12.9458 19.0548C12.6737 19.0548 12.4017 18.9293 12.3389 18.5735H13.8245V18.4062C13.8455 17.7576 13.4689 17.3392 12.9039 17.3392ZM12.9038 17.7157C13.1757 17.7157 13.3642 17.8832 13.4059 18.197H12.3598C12.4016 17.925 12.59 17.7157 12.9038 17.7157ZM23.8043 18.3853V16.5859H23.365V17.632C23.2185 17.4438 23.0093 17.3392 22.7373 17.3392C22.1724 17.3392 21.733 17.7785 21.733 18.3853C21.733 18.992 22.1724 19.4313 22.7373 19.4313C23.0303 19.4313 23.2395 19.3268 23.365 19.1385V19.3895H23.8043V18.3853ZM22.1934 18.3853C22.1934 18.0296 22.4234 17.7367 22.8001 17.7367C23.1558 17.7367 23.4068 18.0087 23.4068 18.3853C23.4068 18.7409 23.1558 19.0338 22.8001 19.0338C22.4234 19.0129 22.1934 18.7409 22.1934 18.3853ZM7.50579 18.3853V17.381H7.06642V17.632C6.91993 17.4438 6.71073 17.3392 6.43872 17.3392C5.87384 17.3392 5.43447 17.7785 5.43447 18.3853C5.43447 18.992 5.87384 19.4313 6.43872 19.4313C6.7317 19.4313 6.9409 19.3268 7.06642 19.1385V19.3895H7.50579V18.3853ZM5.87384 18.3853C5.87384 18.0296 6.104 17.7367 6.48056 17.7367C6.83625 17.7367 7.08739 18.0087 7.08739 18.3853C7.08739 18.7409 6.83625 19.0338 6.48056 19.0338C6.104 19.0129 5.87384 18.7409 5.87384 18.3853Z" fill="black"/>
<path d="M9.49219 2.12891H16.0827V13.971H9.49219V2.12891Z" fill="#FF5F00"/>
<path d="M9.91207 8.04964C9.91207 5.6436 11.0418 3.50947 12.7783 2.12856C11.5022 1.12431 9.8912 0.517578 8.13372 0.517578C3.97002 0.517578 0.601562 3.88603 0.601562 8.04964C0.601562 12.2133 3.97002 15.5817 8.13363 15.5817C9.8911 15.5817 11.5021 14.975 12.7783 13.9706C11.0418 12.6107 9.91207 10.4557 9.91207 8.04964Z" fill="#EB001B"/>
<path d="M24.9737 8.04964C24.9737 12.2132 21.6052 15.5817 17.4416 15.5817C15.6841 15.5817 14.0731 14.975 12.7969 13.9706C14.5543 12.5898 15.6633 10.4557 15.6633 8.04964C15.6633 5.6436 14.5334 3.50947 12.7969 2.12856C14.073 1.12431 15.6841 0.517578 17.4416 0.517578C21.6052 0.517578 24.9737 3.907 24.9737 8.04964Z" fill="#F79E1B"/>
</g>
<defs>
<clipPath id="clip0_161_4975">
<rect width="24.3988" height="18.9662" fill="white" transform="translate(0.601562 0.517578)"/>
</clipPath>
</defs>
</svg>
