<svg width="47" height="16" viewBox="0 0 47 16" fill="none" xmlns="http://www.w3.org/2000/svg">
<g clip-path="url(#clip0_161_4981)">
<path d="M24.3073 5.23328C24.2805 7.34755 26.1915 8.52732 27.631 9.22883C29.1101 9.94852 29.6069 10.4101 29.601 11.0538C29.59 12.0387 28.4212 12.4735 27.3276 12.4904C25.4195 12.5199 24.31 11.9752 23.428 11.5632L22.7407 14.7796C23.6256 15.1874 25.2642 15.543 26.9633 15.5586C30.9519 15.5586 33.5613 13.5897 33.5754 10.5371C33.591 6.66292 28.2167 6.44849 28.2534 4.71683C28.2661 4.19175 28.7671 3.63142 29.865 3.48896C30.4085 3.41699 31.9086 3.36191 33.6094 4.14512L34.277 1.03321C33.3623 0.700168 32.1867 0.381265 30.7231 0.381265C26.969 0.381265 24.3286 2.37693 24.3073 5.23328ZM40.6914 0.649311C39.963 0.649311 39.3493 1.07415 39.0754 1.72609L33.3779 15.33H37.3635L38.1567 13.1381H43.027L43.4871 15.33H47L43.9345 0.649311H40.6914ZM41.2489 4.61512L42.3991 10.1279H39.249L41.2489 4.61512ZM19.4749 0.649495L16.3332 15.3298H20.1312L23.2714 0.649128L19.4749 0.649495ZM13.8564 0.649495L9.90323 10.6416L8.30413 2.14542C8.1165 1.19697 7.37551 0.649311 6.55264 0.649311H0.0905117L0 1.07562C1.32665 1.36349 2.83395 1.8278 3.74715 2.3246C4.30601 2.62809 4.46537 2.89338 4.64896 3.61453L7.67771 15.33H11.6912L17.8446 0.649311L13.8564 0.649495Z" fill="url(#paint0_linear_161_4981)"/>
</g>
<defs>
<linearGradient id="paint0_linear_161_4981" x1="2160.78" y1="46.0043" x2="2204.71" y2="-1512.73" gradientUnits="userSpaceOnUse">
<stop stop-color="#222357"/>
<stop offset="1" stop-color="#254AA5"/>
</linearGradient>
<clipPath id="clip0_161_4981">
<rect width="47" height="15.2383" fill="white" transform="translate(0 0.380859)"/>
</clipPath>
</defs>
</svg>
