<svg width="41" height="40" viewBox="0 0 41 40" fill="none" xmlns="http://www.w3.org/2000/svg">
<rect x="0.5" width="40" height="40" rx="20" fill="#EE8400"/>
<path d="M16.1603 15.588V15.868C15.8429 15.8773 15.6003 15.924 15.4323 16.008C15.2736 16.092 15.1663 16.2273 15.1103 16.414C15.0543 16.6007 15.0263 16.8667 15.0263 17.212V25.57C14.9703 25.57 14.9143 25.57 14.8583 25.57C14.8116 25.57 14.7603 25.57 14.7043 25.57L8.82427 16.484V23.876C8.82427 24.212 8.85227 24.478 8.90827 24.674C8.97361 24.8607 9.09494 24.996 9.27227 25.08C9.45894 25.1547 9.73427 25.2013 10.0983 25.22V25.5C9.93027 25.4813 9.71094 25.472 9.44027 25.472C9.16961 25.4627 8.91294 25.458 8.67027 25.458C8.43694 25.458 8.19894 25.4627 7.95627 25.472C7.72294 25.472 7.52694 25.4813 7.36827 25.5V25.22C7.68561 25.2013 7.92361 25.1547 8.08227 25.08C8.25027 24.996 8.36227 24.8607 8.41827 24.674C8.47427 24.478 8.50227 24.212 8.50227 23.876V17.072C8.50227 16.7267 8.47427 16.4747 8.41827 16.316C8.36227 16.148 8.25027 16.036 8.08227 15.98C7.92361 15.9147 7.68561 15.8773 7.36827 15.868V15.588C7.52694 15.5973 7.72294 15.6067 7.95627 15.616C8.19894 15.6253 8.43694 15.63 8.67027 15.63C8.87561 15.63 9.07161 15.6253 9.25827 15.616C9.44494 15.6067 9.61294 15.5973 9.76227 15.588L14.7043 23.204V17.212C14.7043 16.8667 14.6716 16.6007 14.6063 16.414C14.5503 16.2273 14.4289 16.092 14.2423 16.008C14.0649 15.924 13.7943 15.8773 13.4303 15.868V15.588C13.5983 15.5973 13.8176 15.6067 14.0883 15.616C14.3683 15.6253 14.6249 15.63 14.8583 15.63C15.1009 15.63 15.3389 15.6253 15.5723 15.616C15.8149 15.6067 16.0109 15.5973 16.1603 15.588ZM20.2269 18.094C21.0483 18.094 21.6876 18.346 22.1449 18.85C22.6116 19.3447 22.8449 20.1193 22.8449 21.174H17.9029L17.8889 20.908H21.5009C21.5196 20.4507 21.4823 20.0307 21.3889 19.648C21.2956 19.256 21.1463 18.9433 20.9409 18.71C20.7449 18.4767 20.4883 18.36 20.1709 18.36C19.7416 18.36 19.3589 18.5747 19.0229 19.004C18.6963 19.4333 18.5003 20.1147 18.4349 21.048L18.4769 21.104C18.4583 21.244 18.4443 21.398 18.4349 21.566C18.4256 21.734 18.4209 21.902 18.4209 22.07C18.4209 22.7047 18.5236 23.2507 18.7289 23.708C18.9343 24.1653 19.2003 24.5153 19.5269 24.758C19.8629 24.9913 20.2083 25.108 20.5629 25.108C20.8429 25.108 21.1089 25.066 21.3609 24.982C21.6129 24.8887 21.8463 24.7393 22.0609 24.534C22.2756 24.3287 22.4623 24.0533 22.6209 23.708L22.9009 23.82C22.7983 24.128 22.6303 24.4267 22.3969 24.716C22.1636 25.0053 21.8696 25.2433 21.5149 25.43C21.1603 25.6073 20.7496 25.696 20.2829 25.696C19.6109 25.696 19.0323 25.542 18.5469 25.234C18.0709 24.926 17.7023 24.5013 17.4409 23.96C17.1889 23.4093 17.0629 22.7793 17.0629 22.07C17.0629 21.2487 17.1936 20.544 17.4549 19.956C17.7163 19.3587 18.0849 18.9013 18.5609 18.584C19.0369 18.2573 19.5923 18.094 20.2269 18.094ZM26.4983 18.29V18.584C26.265 18.584 26.0596 18.6027 25.8823 18.64C25.705 18.668 25.5883 18.7613 25.5323 18.92C25.4763 19.0787 25.5183 19.3587 25.6583 19.76L27.1143 23.932L27.0163 23.918L29.0743 18.234L29.3543 18.346L26.7923 25.57C26.755 25.57 26.7176 25.57 26.6803 25.57C26.643 25.57 26.601 25.57 26.5543 25.57L24.2583 19.368C24.109 18.9947 23.9596 18.7707 23.8103 18.696C23.6703 18.6213 23.549 18.584 23.4463 18.584V18.29C23.633 18.318 23.8243 18.3413 24.0203 18.36C24.2256 18.3693 24.445 18.374 24.6783 18.374C24.9676 18.374 25.271 18.3647 25.5883 18.346C25.915 18.3273 26.2183 18.3087 26.4983 18.29ZM34.1843 18.29V18.57C34.007 18.5887 33.839 18.668 33.6803 18.808C33.531 18.9387 33.3956 19.186 33.2743 19.55L31.2443 25.57C31.207 25.57 31.1696 25.57 31.1323 25.57C31.095 25.57 31.053 25.57 31.0063 25.57L28.7523 19.844L29.0743 18.234C29.1303 18.234 29.1816 18.234 29.2283 18.234C29.2843 18.234 29.3403 18.234 29.3963 18.234L31.5803 24.016L31.4683 24.1L32.8543 19.886C32.957 19.5687 32.9943 19.3213 32.9663 19.144C32.9476 18.9573 32.8543 18.822 32.6863 18.738C32.5276 18.6447 32.2803 18.5887 31.9443 18.57V18.29C32.1123 18.2993 32.257 18.3087 32.3783 18.318C32.4996 18.318 32.6163 18.3227 32.7283 18.332C32.8496 18.332 32.9803 18.332 33.1203 18.332C33.335 18.332 33.5263 18.3273 33.6943 18.318C33.8716 18.3087 34.035 18.2993 34.1843 18.29Z" fill="#FAFAFA"/>
</svg>
