<svg width="40" height="40" viewBox="0 0 40 40" fill="none" xmlns="http://www.w3.org/2000/svg">
<rect width="40" height="40" rx="20" fill="#F5F5F5"/>
<path fill-rule="evenodd" clip-rule="evenodd" d="M11.8038 14.2056C12.7039 13.3058 13.9246 12.8002 15.1974 12.8002C16.4702 12.8002 17.6909 13.3058 18.591 14.2056L19.9974 15.6108L21.4038 14.2056C21.8466 13.7472 22.3763 13.3815 22.9619 13.1299C23.5475 12.8784 24.1773 12.746 24.8147 12.7404C25.452 12.7349 26.0841 12.8563 26.674 13.0977C27.2639 13.339 27.7998 13.6954 28.2505 14.1461C28.7012 14.5968 29.0576 15.1327 29.299 15.7226C29.5403 16.3125 29.6618 16.9446 29.6562 17.5819C29.6507 18.2193 29.5183 18.8491 29.2667 19.4348C29.0151 20.0204 28.6495 20.55 28.191 20.9928L19.9974 29.1876L11.8038 20.9928C10.904 20.0927 10.3984 18.872 10.3984 17.5992C10.3984 16.3264 10.904 15.1058 11.8038 14.2056Z" fill="#FF3B30"/>
</svg>
