<svg width="40" height="40" viewBox="0 0 40 40" fill="none" xmlns="http://www.w3.org/2000/svg">
<rect width="40" height="40" rx="20" fill="#FAFAFA"/>
<path d="M27.4878 20.2867L20.0013 27.7743L12.5149 20.2868C12.5149 20.2868 12.5149 20.2868 12.5149 20.2867C11.8025 19.5741 11.4023 18.6078 11.4023 17.6002C11.4023 16.5927 11.8025 15.6264 12.5147 14.9138C12.5148 14.9138 12.5148 14.9137 12.5148 14.9137C12.5149 14.9137 12.5149 14.9136 12.5149 14.9136C13.2275 14.2013 14.1938 13.8012 15.2013 13.8012C16.2089 13.8012 17.1753 14.2014 17.8879 14.9138L17.8881 14.914L19.2945 16.3192L20.0013 17.0254L20.7081 16.3192L22.1145 14.914L22.1208 14.9077L22.127 14.9013C22.4775 14.5384 22.8969 14.2489 23.3605 14.0497C23.8241 13.8506 24.3227 13.7457 24.8273 13.7414C25.3318 13.737 25.8322 13.8331 26.2992 14.0242C26.7662 14.2153 27.1905 14.4974 27.5473 14.8542C27.9041 15.211 28.1863 15.6353 28.3773 16.1023C28.5684 16.5693 28.6645 17.0697 28.6602 17.5742C28.6558 18.0788 28.5509 18.5774 28.3518 19.041L29.2706 19.4357L28.3518 19.041C28.1526 19.5047 27.8631 19.924 27.5002 20.2745L27.4939 20.2806L27.4878 20.2867Z" stroke="black" stroke-width="2"/>
</svg>
